<svg xmlns="http://www.w3.org/2000/svg" xmlns:xlink="http://www.w3.org/1999/xlink" viewBox="0 0 768 737.95"><defs><style>.cls-1{fill:url(#linear-gradient);}.cls-2{fill:#153084;opacity:0.2;}</style><linearGradient id="linear-gradient" x1="92.99" y1="319.26" x2="784.29" y2="319.26" gradientUnits="userSpaceOnUse"><stop offset="0" stop-color="#1b3fab"/><stop offset="1" stop-color="#6f89ea"/></linearGradient></defs><g id="Layer_2" data-name="Layer 2"><g id="Layer_1-2" data-name="Layer 1"><path class="cls-1" d="M93,.09Q428.19.09,763.41,0c3.75,0,4.6.84,4.59,4.59q-.16,224.21-.09,448.4c-2.09.89-3.2,2.81-4.6,4.41-38.21,43.54-76.08,87.36-117.1,128.38-45.3,45.3-98.9,63.05-161,46.86-65.59-17.1-106.88-59.92-121.36-126.77-5.45-25.11-4.62-51-6.88-76.51-1.86-21.05-1.88-42.29-5-63.2-8-53.39-35.52-93.88-82.22-121-17.57-10.21-36.88-16.82-55.4-25.07-47.11-21-79.35-55.66-93.84-105.21C111.36,83.48,104.67,51.34,97,19.5,95.49,13.08,93,6.83,93,.09Z"/><path class="cls-2" d="M93,.09c0,6.74,2.5,13,4,19.41,7.64,31.84,14.33,64,23.51,95.37,14.49,49.55,46.73,84.24,93.84,105.21,18.52,8.25,37.83,14.86,55.4,25.07,46.7,27.13,74.23,67.62,82.22,121,3.13,20.91,3.15,42.15,5,63.2,2.26,25.51,1.43,51.4,6.88,76.51,14.48,66.85,55.77,109.67,121.36,126.77,62.06,16.19,115.66-1.56,161-46.86,41-41,78.89-84.84,117.1-128.38,1.4-1.6,2.51-3.52,4.6-4.41v80C757,543,747.46,554.34,737,564.81c-.93.94-1.64,2.1-2.56,3.05-11.92,12.31-24.11,24.39-35.75,37-17.54,18.93-37.43,35.37-55.79,53.43-13.15,12.93-26.79,25.38-40.55,37.66-22.68,20.21-48.88,33.55-78.9,39-11,2-22,3.43-33.13,2.92-28.26-1.28-55-8.08-79.69-22.39-13.18-7.63-25.4-16.45-35.92-27.39-23.16-24.08-38.19-52.43-43.89-85.56-2.42-14-3.51-28.22-4.93-42.38s-3.27-28.26-4.76-42.41c-1.2-11.36-2-22.76-3.23-34.12-1.51-14.14-3.64-28.23-4.77-42.4a164.25,164.25,0,0,0-9.31-43.12c-10-27.66-26.53-50.64-48.84-69.88C237.39,313,216.76,303.84,195.72,295c-21.75-9.12-44-17.15-65.06-27.81-28.91-14.63-51.12-36.48-67.49-64.52C53,185.21,47.7,166,42.14,146.92Q31,108.69,20,70.43,10.21,36.74.47,3A24,24,0,0,1,0,.09Z"/></g></g></svg>