<svg xmlns="http://www.w3.org/2000/svg" xmlns:xlink="http://www.w3.org/1999/xlink" viewBox="0 0 279.96 478.5"><defs><style>.cls-1{fill:#153084;opacity:0.2;}.cls-2{fill:url(#linear-gradient);}</style><linearGradient id="linear-gradient" x1="-72.25" y1="271.75" x2="207.71" y2="271.75" gradientUnits="userSpaceOnUse"><stop offset="0.09" stop-color="#6f89ea"/><stop offset="1" stop-color="#1b3fab"/></linearGradient></defs><g id="Layer_2" data-name="Layer 2"><g id="Layer_1-2" data-name="Layer 1"><path class="cls-1" d="M263.16,236.73c-6-8.59-14.08-15.44-23.46-21.15q-51.19-31.15-102.35-62.38c-19-11.68-30.3-27.71-34-47.7-1.79-9.69-3.41-19.4-5.11-29.1C97.15,70.85,96.1,65.31,95,59.77,89.9,34.94,75,16.54,48.41,6.13A88.64,88.64,0,0,0,0,1.43V385.84c93.42-13,208.17-30.56,243.81-52.34C280.46,312.82,286.55,270.27,263.16,236.73Z"/><path class="cls-2" d="M261.81,275.66c-6.48-8-14.63-14-23.83-18.56q-50.19-25-100.34-50.16c-18.68-9.41-30.83-24.37-36.6-44.46-2.8-9.74-5.45-19.52-8.16-29.28-1.66-5.56-3.29-11.13-5-16.68-7.6-24.88-23.35-41.78-48.7-48.84A71.09,71.09,0,0,0,0,67.81V478.5C86.66,451.31,221.14,410.14,256,378,286.72,351.67,287.08,307,261.81,275.66Z"/></g></g></svg>